<svg width="17" height="31" viewBox="0 0 17 31" fill="none" xmlns="http://www.w3.org/2000/svg">
<path d="M8.547 0C9.58628 0 10.4259 0.839646 10.4259 1.87893V3.97511C10.5199 3.98685 10.608 3.99859 10.7019 4.01621C10.7254 4.02208 10.743 4.02208 10.7665 4.02795L13.5849 4.54466C14.6065 4.73255 15.2818 5.71311 15.0939 6.72891C14.906 7.7447 13.9254 8.42581 12.9096 8.23792L10.1206 7.72709C8.28278 7.45699 6.6622 7.63901 5.5231 8.09113C4.384 8.54325 3.92602 9.16564 3.82033 9.74106C3.70289 10.3693 3.79097 10.7216 3.89078 10.9389C3.99647 11.1679 4.21373 11.4262 4.64236 11.7139C5.59943 12.3422 7.06735 12.7532 8.96976 13.2582L9.14004 13.3052C10.8193 13.7514 12.8744 14.2916 14.401 15.2898C15.2348 15.8358 16.0216 16.5757 16.509 17.6091C17.008 18.6601 17.1137 19.8344 16.8847 21.0851C16.4796 23.3163 14.9412 24.8077 13.0329 25.5886C12.2285 25.9175 11.3537 26.1288 10.4259 26.2345V28.1957C10.4259 29.2349 9.58628 30.0746 8.547 30.0746C7.50772 30.0746 6.66807 29.2349 6.66807 28.1957V26.1464C6.64459 26.1406 6.61523 26.1406 6.59174 26.1347H6.58C5.14732 25.9116 2.79279 25.2951 1.20744 24.5905C0.262107 24.1677 -0.166523 23.058 0.256235 22.1126C0.678994 21.1673 1.78874 20.7387 2.73407 21.1614C3.96125 21.7075 5.98109 22.2477 7.14955 22.4297C9.0226 22.7057 10.5668 22.5471 11.612 22.1185C12.6043 21.7134 13.0564 21.1262 13.1856 20.4216C13.2972 19.7992 13.2091 19.441 13.1093 19.2238C12.9977 18.9889 12.7805 18.7306 12.346 18.4428C11.383 17.8146 9.90922 17.4036 8.00094 16.8986L7.83653 16.8575C6.16311 16.3995 4.10804 15.8534 2.58141 14.8553C1.74763 14.3092 0.966705 13.5635 0.479358 12.5301C-0.0138603 11.4791 -0.113678 10.3047 0.121188 9.05408C0.543946 6.81111 2.22324 5.35494 4.13152 4.5975C4.91245 4.2863 5.76971 4.07492 6.66807 3.95162V1.87893C6.66807 0.839646 7.50772 0 8.547 0Z" fill="#30D5C8"/>
</svg>
