<svg width="36" height="32" viewBox="0 0 36 32" fill="none" xmlns="http://www.w3.org/2000/svg">
<path d="M15.6823 1.00229C15.6823 0.564788 15.9635 0.177288 16.3823 0.0460378C16.801 -0.0852122 17.251 0.0710379 17.501 0.427288L31.501 20.4273C31.7135 20.7335 31.7385 21.1335 31.5698 21.4648C31.401 21.796 31.0573 22.0023 30.6823 22.0023H16.6823C16.1323 22.0023 15.6823 21.5523 15.6823 21.0023V1.00229ZM12.9385 6.03354C13.376 6.15229 13.6823 6.54604 13.6823 7.00229V21.0023C13.6823 21.5523 13.2323 22.0023 12.6823 22.0023H4.68227C4.32602 22.0023 3.99477 21.8148 3.81977 21.5023C3.64477 21.1898 3.63852 20.8148 3.81352 20.5023L11.8135 6.50229C12.0385 6.10854 12.501 5.91479 12.9385 6.03354ZM0.0385244 25.271C-0.142726 24.6335 0.338524 24.0023 1.00102 24.0023H34.3635C35.026 24.0023 35.5073 24.6335 35.326 25.271L35.076 26.1648C34.101 29.621 30.9573 32.0023 27.3698 32.0023H7.99477C4.40727 32.0023 1.26352 29.621 0.288524 26.171L0.0385244 25.2773V25.271Z" fill="#7F7F7F"/>
</svg>
