<svg width="37" height="30" viewBox="0 0 37 30" fill="none" xmlns="http://www.w3.org/2000/svg">
<path d="M12.026 20.3507C18.6689 20.3507 24.0514 15.7949 24.0514 10.1753C24.0514 4.55578 18.6689 0 12.026 0C5.38316 0 0.000632747 4.55578 0.000632747 10.1753C0.000632747 12.407 0.850505 14.471 2.29009 16.1534C2.08773 16.6968 1.7871 17.1767 1.46912 17.5814C1.19161 17.9398 0.90832 18.2173 0.700188 18.4081C0.596122 18.5006 0.5094 18.5758 0.451586 18.622C0.422678 18.6452 0.399552 18.6625 0.38799 18.6683L0.376427 18.6799C0.0584472 18.9169 -0.0803075 19.3332 0.0468843 19.7089C0.174076 20.0847 0.526744 20.3507 0.925664 20.3507C2.18602 20.3507 3.45794 20.0269 4.51594 19.628C5.04783 19.4257 5.54504 19.2002 5.97287 18.9689C7.75355 19.8477 9.81753 20.3507 12.026 20.3507ZM25.9015 10.1753C25.9015 16.6679 20.1721 21.559 13.3847 22.1429C14.7896 26.4443 19.4494 29.601 24.9765 29.601C27.185 29.601 29.249 29.098 31.0297 28.2192C31.4633 28.4505 31.9547 28.676 32.4866 28.8783C33.5446 29.2772 34.8165 29.601 36.0769 29.601C36.4758 29.601 36.8342 29.3408 36.9556 28.9593C37.077 28.5777 36.9441 28.1614 36.6203 27.9244L36.6087 27.9128C36.5972 27.9013 36.5741 27.8897 36.5451 27.8666C36.4873 27.8203 36.4006 27.7509 36.2965 27.6527C36.0884 27.4619 35.8051 27.1844 35.5276 26.8259C35.2096 26.4212 34.909 25.9356 34.7066 25.3979C36.1462 23.7213 36.9961 21.6573 36.9961 19.4199C36.9961 14.0547 32.0877 9.65501 25.861 9.27344C25.8842 9.56829 25.8957 9.86893 25.8957 10.1696L25.9015 10.1753Z" fill="#30D5C8"/>
</svg>
