<svg width="30" height="26" viewBox="0 0 30 26" fill="none" xmlns="http://www.w3.org/2000/svg">
<path d="M8.91417 0.368149C9.49419 0.889582 9.54106 1.77426 9.01963 2.35428L4.80129 7.04133C4.5435 7.32841 4.18026 7.49831 3.79358 7.50417C3.40689 7.51003 3.03779 7.36356 2.76243 7.09405L0.413046 4.75053C-0.131823 4.19981 -0.131823 3.30927 0.413046 2.75854C0.957914 2.20781 1.85431 2.20781 2.39918 2.75854L3.69398 4.05334L6.92218 0.467748C7.44361 -0.112273 8.32829 -0.159144 8.90831 0.36229L8.91417 0.368149ZM8.91417 9.74223C9.49419 10.2637 9.54106 11.1483 9.01963 11.7284L4.80129 16.4154C4.5435 16.7025 4.18026 16.8724 3.79358 16.8783C3.40689 16.8841 3.03779 16.7376 2.76243 16.4681L0.413046 14.1246C-0.137682 13.5739 -0.137682 12.6834 0.413046 12.1385C0.963773 11.5936 1.85431 11.5878 2.39918 12.1385L3.69398 13.4333L6.92218 9.84769C7.44361 9.26767 8.32829 9.2208 8.90831 9.74223H8.91417ZM13.1266 3.75454C13.1266 2.71753 13.9645 1.87972 15.0015 1.87972H28.1252C29.1622 1.87972 30 2.71753 30 3.75454C30 4.79155 29.1622 5.62935 28.1252 5.62935H15.0015C13.9645 5.62935 13.1266 4.79155 13.1266 3.75454ZM13.1266 13.1286C13.1266 12.0916 13.9645 11.2538 15.0015 11.2538H28.1252C29.1622 11.2538 30 12.0916 30 13.1286C30 14.1656 29.1622 15.0034 28.1252 15.0034H15.0015C13.9645 15.0034 13.1266 14.1656 13.1266 13.1286ZM9.37702 22.5027C9.37702 21.4657 10.2148 20.6279 11.2518 20.6279H28.1252C29.1622 20.6279 30 21.4657 30 22.5027C30 23.5397 29.1622 24.3775 28.1252 24.3775H11.2518C10.2148 24.3775 9.37702 23.5397 9.37702 22.5027ZM2.81515 19.6905C3.561 19.6905 4.2763 19.9868 4.8037 20.5142C5.33109 21.0416 5.62738 21.7569 5.62738 22.5027C5.62738 23.2486 5.33109 23.9639 4.8037 24.4913C4.2763 25.0186 3.561 25.3149 2.81515 25.3149C2.06931 25.3149 1.35401 25.0186 0.826611 24.4913C0.299217 23.9639 0.00292938 23.2486 0.00292938 22.5027C0.00292938 21.7569 0.299217 21.0416 0.826611 20.5142C1.35401 19.9868 2.06931 19.6905 2.81515 19.6905Z" fill="#30D5C8"/>
</svg>
